<?xml version="1.0" encoding="UTF-8" standalone="no"?>
<!DOCTYPE svg PUBLIC "-//W3C//DTD SVG 1.1//EN" "http://www.w3.org/Graphics/SVG/1.1/DTD/svg11.dtd">
<svg xmlns="http://www.w3.org/2000/svg" xmlns:xlink="http://www.w3.org/1999/xlink" version="1.1" width="333.3333pt" height="333.3333pt" viewBox="0 0 333.3333 333.3333">
<g enable-background="new">
<g>
<path transform="matrix(2.7777777,0,0,-2.7777777,0,333.3333)" d="M 0 0 L 120.003 0 L 120.003 120.003 L 0 120.003 Z " fill="#0b1148"/>
<path transform="matrix(2.7777777,0,0,-2.7777777,239.5575,141.71833)" d="M 0 0 C 0 -6.27 -5.082 -11.352 -11.352 -11.352 C -17.621 -11.352 -22.704 -6.27 -22.704 0 C -22.704 6.269 -17.621 11.352 -11.352 11.352 C -5.082 11.352 0 6.269 0 0 " fill="#3692fe"/>
<path transform="matrix(2.7777777,0,0,-2.7777777,164.69527,141.71833)" d="M 0 0 C 0 -6.27 -5.082 -11.352 -11.352 -11.352 C -17.621 -11.352 -22.704 -6.27 -22.704 0 C -22.704 6.269 -17.621 11.352 -11.352 11.352 C -5.082 11.352 0 6.269 0 0 " fill="#b536fe"/>
<path transform="matrix(2.7777777,0,0,-2.7777777,212.41445,131.83333)" d="M 0 0 C 0 -8.332 -6.755 -15.087 -15.087 -15.087 C -23.419 -15.087 -30.174 -8.332 -30.174 0 C -30.174 8.332 -23.419 15.087 -15.087 15.087 C -6.755 15.087 0 8.332 0 0 " fill="#4cd1ec"/>
<path transform="matrix(2.7777777,0,0,-2.7777777,168.43277,194.87667)" d="M 0 0 L -.445 .629 L -.974 1.212 L -1.632 1.79 L -2.294 2.321 L -2.954 2.797 L -3.748 3.272 L -4.539 3.668 L -5.389 4.013 L -6.267 4.357 L -7.194 4.622 L -7.674 4.755 L -7.676 4.755 L -7.678 4.755 L -8.132 4.888 L -8.134 4.891 L -8.138 4.891 L -8.592 5.051 C -8.594 5.051 -8.594 5.053 -8.594 5.053 C -8.596 5.053 -8.599 5.053 -8.601 5.055 L -9.081 5.269 L -9.083 5.269 L -9.483 5.455 C -9.486 5.455 -9.486 5.457 -9.486 5.457 L -9.49 5.457 L -9.944 5.698 C -9.944 5.698 -9.944 5.7 -9.946 5.7 L -9.948 5.7 L -10.375 5.94 C -10.379 5.942 -10.379 5.947 -10.381 5.949 C -10.386 5.951 -10.39 5.951 -10.393 5.953 L -10.708 6.216 L -11.104 6.48 C -11.106 6.48 -11.106 6.482 -11.106 6.485 C -11.108 6.485 -11.108 6.485 -11.111 6.487 L -11.457 6.754 C -11.46 6.756 -11.46 6.758 -11.462 6.758 C -11.464 6.76 -11.466 6.758 -11.466 6.76 L -11.786 7.054 C -11.789 7.056 -11.789 7.058 -11.789 7.058 C -11.791 7.06 -11.793 7.058 -11.795 7.06 L -12.062 7.354 C -12.073 7.365 -12.071 7.38 -12.075 7.394 C -12.08 7.405 -12.089 7.416 -12.089 7.429 L -12.078 22.353 L -12.12 22.361 C -12.122 22.361 -12.122 22.364 -12.122 22.364 C -12.124 22.364 -12.129 22.364 -12.131 22.366 L -13.198 22.686 C -13.2 22.686 -13.2 22.688 -13.202 22.688 C -13.207 22.691 -13.211 22.688 -13.214 22.691 L -13.747 22.931 C -13.749 22.931 -13.749 22.933 -13.749 22.933 C -13.752 22.933 -13.754 22.933 -13.754 22.935 L -14.207 23.175 L -14.21 23.175 L -14.69 23.442 C -14.692 23.442 -14.692 23.444 -14.694 23.446 C -14.696 23.449 -14.699 23.446 -14.701 23.449 L -15.101 23.715 C -15.101 23.715 -15.101 23.718 -15.103 23.718 L -15.105 23.718 L -15.506 24.011 C -15.508 24.013 -15.508 24.013 -15.508 24.015 C -15.51 24.018 -15.512 24.015 -15.514 24.018 L -15.726 24.2 L -15.726 5.994 L -15.372 5.736 L -14.972 5.442 C -14.972 5.442 -14.972 5.44 -14.97 5.44 L -14.968 5.44 L -14.579 5.129 L -14.112 4.922 C -14.109 4.922 -14.109 4.92 -14.109 4.92 C -14.107 4.918 -14.105 4.92 -14.105 4.92 L -13.656 4.682 L -13.125 4.442 L -12.6 4.233 L -12.075 4.075 L -11.546 3.944 L -11.017 3.864 L -11.015 3.864 L -11.013 3.864 L -10.402 3.757 L -9.819 3.677 L -9.817 3.677 L -8.752 3.544 L -8.75 3.544 L -7.683 3.384 C -7.681 3.384 -7.678 3.382 -7.676 3.382 C -7.674 3.382 -7.674 3.384 -7.672 3.382 L -6.658 3.141 L -6.656 3.139 L -6.654 3.139 L -5.587 2.846 C -5.584 2.846 -5.584 2.844 -5.582 2.844 C -5.58 2.844 -5.578 2.846 -5.578 2.844 L -4.671 2.523 C -4.668 2.523 -4.668 2.521 -4.668 2.521 L -4.664 2.521 L -3.65 2.094 C -3.648 2.094 -3.648 2.092 -3.648 2.092 C -3.646 2.09 -3.644 2.092 -3.644 2.092 L -2.79 1.665 C -2.788 1.665 -2.788 1.663 -2.788 1.663 L -2.786 1.663 L -1.905 1.183 C -1.903 1.181 -1.903 1.178 -1.901 1.178 C -1.899 1.176 -1.896 1.178 -1.894 1.176 L -1.094 .643 C -1.092 .641 -1.092 .638 -1.089 .636 C -1.087 .634 -1.085 .636 -1.083 .634 L -.362 .02 L .382 -.591 C .384 -.593 .384 -.595 .387 -.598 C .389 -.6 .393 -.6 .393 -.6 L .429 -.638 L .422 -.627 Z " fill="#ffffff"/>
<path transform="matrix(2.7777777,0,0,-2.7777777,159.27666,201.09555)" d="M 0 0 L -.989 .029 L -2.054 .029 L -3.068 .056 L -4.128 .056 L -5.144 .029 L -6.209 0 L -7.276 -.053 L -7.278 -.053 L -8.265 -.08 L -9.248 -.104 L -10.315 -.158 L -10.317 -.158 L -10.695 -.169 L .344 -.02 L .002 0 Z " fill="#ffffff"/>
<path transform="matrix(2.7777777,0,0,-2.7777777,161.0661,196.78472)" d="M 0 0 L -1.118 .24 L -2.392 .478 L -3.59 .638 L -4.786 .798 L -4.788 .798 L -5.989 .931 L -5.991 .931 L -7.24 1.038 L -7.243 1.038 L -8.461 1.118 L -8.463 1.118 L -9.715 1.143 L -10.966 1.143 L -10.971 1.143 L -11.664 1.169 L -12.38 1.169 L -12.384 1.169 L -13.051 1.196 L -13.794 1.196 C -13.798 1.196 -13.803 1.196 -13.807 1.198 L -14.439 1.278 L -15.183 1.305 L -15.185 1.305 L -15.194 1.305 L -15.857 1.385 L -16.575 1.438 L -16.579 1.438 L -17.268 1.492 L -17.277 1.492 L -17.998 1.572 L -18 1.572 L -18.004 1.572 L -18.671 1.678 L -19.3 1.754 C -19.309 1.752 -19.314 1.743 -19.32 1.743 C -19.383 1.743 -19.434 1.781 -19.434 1.843 L -19.434 1.865 C -19.434 1.867 -19.436 1.867 -19.436 1.87 C -19.436 1.872 -19.434 1.872 -19.434 1.874 L -19.434 1.916 C -19.434 1.918 -19.436 1.918 -19.436 1.921 C -19.436 1.923 -19.434 1.923 -19.434 1.925 L -19.429 19.158 L -19.921 19.193 L -19.921 18.998 C -19.921 18.996 -19.918 18.996 -19.918 18.993 C -19.918 18.991 -19.921 18.991 -19.921 18.989 L -19.921 18.947 C -19.921 18.944 -19.918 18.944 -19.918 18.942 C -19.918 18.94 -19.921 18.94 -19.921 18.938 L -19.921 18.735 C -19.921 18.733 -19.918 18.733 -19.918 18.731 C -19.918 18.729 -19.921 18.729 -19.921 18.727 L -19.921 .956 L -19.036 .86 L -17.971 .753 L -17.969 .753 L -16.986 .646 L -15.975 .598 L -14.961 .544 L -14.959 .544 L -14.957 .544 L -13.889 .464 L -13.887 .464 L -12.907 .384 L -11.92 .358 L -11.915 .358 L -10.902 .304 L -9.839 .277 L -9.835 .277 L -8.821 .224 L -7.841 .224 L -7.836 .224 L -5.702 .171 L -5.695 .171 L -4.715 .091 L -4.713 .091 L -3.646 .064 L -3.641 .064 L -2.628 .011 C -2.625 .011 -2.625 .008 -2.625 .008 L -2.623 .008 L -1.556 -.098 L -1.554 -.098 L -.54 -.205 L .525 -.312 L .527 -.312 L 1.514 -.418 L 2.032 -.469 L 1.209 -.267 Z " fill="#ffffff"/>
<path transform="matrix(2.7777777,0,0,-2.7777777,165.0736,195.72249)" d="M 0 0 L -.002 0 L -1.065 .531 L -2.256 1.009 L -3.366 1.378 L -3.368 1.378 L -4.646 1.725 L -5.924 2.018 L -7.171 2.23 L -8.419 2.388 L -9.741 2.494 L -11.066 2.494 L -12.347 2.441 L -12.933 2.414 L -12.94 2.414 L -13.554 2.414 L -13.558 2.414 L -14.172 2.441 L -14.174 2.441 L -14.178 2.441 L -15.352 2.548 L -15.354 2.548 C -15.359 2.548 -15.363 2.548 -15.365 2.55 L -15.899 2.656 L -15.901 2.656 L -16.515 2.792 L -16.519 2.792 L -17.053 2.925 L -17.055 2.928 L -17.059 2.928 L -18.126 3.248 C -18.129 3.248 -18.129 3.25 -18.129 3.25 C -18.133 3.25 -18.135 3.25 -18.137 3.252 L -18.671 3.466 C -18.673 3.466 -18.673 3.468 -18.675 3.468 C -18.678 3.47 -18.682 3.468 -18.684 3.47 L -19.138 3.71 C -19.145 3.712 -19.145 3.719 -19.149 3.724 C -19.16 3.732 -19.167 3.744 -19.176 3.757 C -19.185 3.77 -19.189 3.781 -19.191 3.795 C -19.193 3.801 -19.198 3.806 -19.198 3.81 L -19.198 3.837 L -19.193 19.709 L -19.436 19.727 L -20.103 19.781 L -20.112 19.781 L -20.645 19.865 L -20.645 1.634 L -20.08 1.545 L -19.418 1.492 C -19.416 1.492 -19.416 1.49 -19.414 1.49 C -19.411 1.49 -19.409 1.492 -19.409 1.492 L -18.689 1.385 L -18.687 1.385 L -18.002 1.305 L -17.282 1.252 C -17.279 1.252 -17.279 1.25 -17.279 1.25 L -17.277 1.25 L -16.619 1.17 L -15.872 1.143 L -15.87 1.143 L -15.23 1.116 C -15.23 1.116 -15.228 1.116 -15.228 1.114 L -15.225 1.114 L -14.485 1.061 L -14.481 1.061 L -13.814 1.034 L -12.404 1.034 L -12.402 1.034 L -9.895 .981 L -9.892 .981 L -9.888 .981 L -8.661 .901 L -8.659 .901 L -7.405 .794 L -6.204 .687 C -6.202 .687 -6.202 .685 -6.202 .685 L -6.198 .685 L -4.997 .525 L -4.995 .525 L -3.741 .338 L -3.739 .338 L -2.512 .151 C -2.51 .151 -2.51 .149 -2.508 .149 C -2.505 .149 -2.505 .151 -2.503 .151 L -1.329 -.115 L -.182 -.382 C -.18 -.382 -.18 -.382 -.18 -.384 L -.176 -.384 L 1.025 -.704 L 1.44 -.818 L 1.069 -.562 Z " fill="#ffffff"/>
<path transform="matrix(2.7777777,0,0,-2.7777777,158.83722,177.95084)" d="M 0 0 L -.267 .267 C -.269 .269 -.269 .271 -.271 .273 C -.273 .276 -.276 .276 -.278 .278 L -.465 .518 C -.467 .52 -.465 .525 -.467 .527 C -.469 .531 -.474 .534 -.476 .538 L -.602 .787 L -.803 .987 C -.807 .991 -.805 .996 -.809 .998 C -.811 1 -.816 1 -.818 1.003 L -1.005 1.269 C -1.007 1.272 -1.005 1.274 -1.007 1.276 C -1.009 1.28 -1.014 1.28 -1.014 1.285 L -1.414 2.085 C -1.416 2.09 -1.414 2.094 -1.416 2.098 C -1.418 2.105 -1.425 2.107 -1.425 2.114 L -1.476 2.365 L -1.629 2.672 C -1.632 2.676 -1.629 2.681 -1.632 2.685 C -1.634 2.692 -1.641 2.694 -1.641 2.701 L -1.694 2.968 C -1.696 2.972 -1.692 2.974 -1.692 2.979 C -1.694 2.983 -1.696 2.985 -1.696 2.99 L -1.689 18.017 L -2.03 18.197 C -2.032 18.2 -2.032 18.202 -2.034 18.202 C -2.038 18.204 -2.041 18.202 -2.043 18.204 L -2.307 18.389 L -2.648 18.571 C -2.652 18.573 -2.652 18.578 -2.654 18.578 C -2.659 18.58 -2.663 18.58 -2.665 18.582 L -2.93 18.793 L -3.192 18.975 C -3.194 18.978 -3.194 18.98 -3.197 18.982 C -3.199 18.984 -3.203 18.984 -3.203 18.984 L -3.47 19.224 C -3.475 19.227 -3.472 19.231 -3.477 19.236 C -3.479 19.238 -3.483 19.238 -3.486 19.24 L -3.672 19.48 L -3.855 19.716 L -4.061 19.922 C -4.064 19.925 -4.064 19.925 -4.064 19.927 C -4.064 19.927 -4.066 19.927 -4.066 19.929 L -4.279 20.169 C -4.284 20.174 -4.282 20.18 -4.286 20.183 C -4.29 20.189 -4.297 20.194 -4.302 20.203 L -4.404 20.46 L -4.455 20.545 L -4.455 2.581 L -4.362 2.345 L -4.206 2.085 C -4.204 2.083 -4.206 2.079 -4.204 2.076 C -4.201 2.074 -4.197 2.072 -4.197 2.07 L -4.099 1.825 L -3.901 1.627 C -3.899 1.625 -3.901 1.625 -3.899 1.623 C -3.897 1.621 -3.897 1.623 -3.895 1.621 L -3.681 1.381 C -3.679 1.378 -3.681 1.376 -3.679 1.374 C -3.677 1.372 -3.675 1.372 -3.672 1.369 L -3.492 1.112 L -3.312 .932 L -3.054 .7 L -2.79 .489 L -2.528 .307 L -2.187 .098 L -2.185 .098 L -1.118 -.542 C -1.116 -.542 -1.116 -.545 -1.116 -.545 L -1.111 -.545 L -.391 -1.025 L -.389 -1.025 L .358 -1.532 C .36 -1.534 .36 -1.538 .362 -1.54 C .367 -1.543 .369 -1.543 .373 -1.545 L .958 -2.103 L 1.649 -2.688 C 1.652 -2.69 1.652 -2.692 1.654 -2.694 C 1.656 -2.696 1.661 -2.696 1.663 -2.699 L 2.73 -3.872 C 2.732 -3.875 2.732 -3.879 2.734 -3.881 C 2.736 -3.884 2.739 -3.884 2.741 -3.886 L 3.194 -4.526 C 3.194 -4.528 3.194 -4.528 3.197 -4.53 C 3.197 -4.533 3.199 -4.533 3.201 -4.533 L 3.503 -5.037 L 3.35 -4.697 L 3.005 -4.088 L 3.005 -4.084 C 3.003 -4.081 3.001 -4.081 3.001 -4.079 L 2.736 -3.526 L 2.343 -2.948 C 2.341 -2.945 2.343 -2.943 2.341 -2.943 C 2.339 -2.941 2.336 -2.943 2.336 -2.941 L 2.018 -2.385 L 1.601 -1.836 L .693 -.769 Z " fill="#ffffff"/>
<path transform="matrix(2.7777777,0,0,-2.7777777,122.92917,196.2536)" d="M 0 0 L -.26 .02 L -.702 .044 L -.247 .007 Z " fill="#ffffff"/>
<path transform="matrix(2.7777777,0,0,-2.7777777,114.92082,185.95446)" d="M 0 0 L .534 -.16 C .536 -.16 .536 -.162 .536 -.162 L .538 -.162 L 1.065 -.347 L 1.672 -.478 C 1.674 -.478 1.674 -.478 1.674 -.48 L 1.676 -.48 L 2.203 -.611 L 2.781 -.665 C 2.783 -.665 2.783 -.667 2.783 -.667 C 2.785 -.667 2.785 -.665 2.788 -.665 L 3.321 -.745 L 3.901 -.798 L 4.506 -.851 L 5.111 -.851 L 5.691 -.798 C 5.693 -.798 5.693 -.8 5.693 -.798 C 5.695 -.798 5.695 -.796 5.698 -.796 L 6.978 -.742 C 6.98 -.742 6.98 -.745 6.98 -.745 C 6.982 -.745 6.982 -.742 6.982 -.742 L 6.985 -.742 L 8.318 -.769 L 8.325 -.769 L 9.659 -.876 L 9.661 -.876 L 9.663 -.876 L 10.917 -1.009 C 10.919 -1.009 10.919 -1.011 10.922 -1.011 L 10.924 -1.011 L 12.258 -1.225 C 12.26 -1.225 12.26 -1.227 12.262 -1.227 L 12.267 -1.227 L 13.52 -1.494 C 13.523 -1.494 13.523 -1.496 13.525 -1.496 C 13.527 -1.496 13.529 -1.494 13.531 -1.496 L 14.759 -1.87 C 14.761 -1.87 14.761 -1.872 14.761 -1.872 L 14.763 -1.872 L 15.937 -2.272 C 15.939 -2.272 15.939 -2.274 15.941 -2.274 L 15.946 -2.274 L 17.093 -2.754 C 17.093 -2.754 17.093 -2.757 17.095 -2.757 L 17.097 -2.757 L 18.244 -3.29 C 18.246 -3.292 18.246 -3.292 18.249 -3.295 L 18.255 -3.295 L 19.242 -3.855 C 19.242 -3.855 19.242 -3.857 19.245 -3.857 L 19.249 -3.857 L 19.374 -3.935 L 18.769 -3.399 L 18.053 -2.817 L 17.259 -2.288 L 16.39 -1.787 L 15.492 -1.365 L 14.532 -.965 L 13.549 -.62 L 12.571 -.329 L 11.569 -.091 L 10.502 .069 L 10.499 .069 L 9.441 .2 L 9.439 .2 L 8.852 .253 L 8.85 .253 L 8.841 .253 L 8.227 .36 L 8.225 .36 L 8.223 .36 L 7.689 .467 L 7.687 .467 L 7.683 .467 L 7.149 .6 L 7.147 .6 L 6.533 .76 C 6.531 .76 6.529 .765 6.527 .765 C 6.522 .767 6.518 .767 6.513 .769 L 6.062 .98 L 6.06 .98 L 5.526 1.22 L 5.524 1.223 L 5.071 1.436 C 5.068 1.436 5.068 1.438 5.068 1.438 C 5.066 1.438 5.064 1.438 5.064 1.441 L 4.104 1.974 C 4.099 1.976 4.099 1.981 4.095 1.983 C 4.09 1.985 4.086 1.985 4.084 1.987 L 3.71 2.31 L 3.283 2.63 C 3.279 2.632 3.281 2.636 3.279 2.636 C 3.268 2.648 3.263 2.659 3.257 2.672 C 3.25 2.685 3.243 2.697 3.241 2.712 C 3.239 2.714 3.237 2.717 3.237 2.721 L 3.239 17.524 L 2.754 17.573 C 2.754 17.573 2.752 17.573 2.752 17.575 L 2.743 17.575 L 2.159 17.682 L 2.154 17.682 L 1.623 17.786 L 1.621 17.786 L 1.007 17.92 C 1.005 17.92 1.005 17.922 1.005 17.922 C 1.003 17.922 1 17.922 .998 17.924 L -.069 18.244 C -.071 18.244 -.071 18.247 -.071 18.247 C -.076 18.247 -.078 18.247 -.08 18.249 L -.613 18.462 C -.616 18.462 -.616 18.465 -.616 18.465 C -.618 18.465 -.618 18.465 -.62 18.467 L -.911 18.605 L -.911 .391 L -.525 .187 Z " fill="#ffffff"/>
<path transform="matrix(2.7777777,0,0,-2.7777777,137.2561,175.56221)" d="M 0 0 L .345 -.293 L .347 -.293 L .658 -.554 L 1.051 -.789 L 1.449 -1.029 L 1.845 -1.24 L 2.243 -1.454 L 2.712 -1.663 L 3.161 -1.821 L 3.606 -1.952 L 3.608 -1.952 L 4.088 -2.085 L 5.022 -2.352 C 5.024 -2.352 5.024 -2.354 5.024 -2.354 L 5.028 -2.354 L 5.962 -2.674 C 5.964 -2.674 5.967 -2.679 5.967 -2.679 C 5.969 -2.679 5.973 -2.677 5.975 -2.679 L 6.776 -3.052 L 6.776 -3.054 L 7.629 -3.455 C 7.632 -3.457 7.632 -3.459 7.634 -3.459 C 7.636 -3.461 7.638 -3.459 7.64 -3.461 L 8.387 -3.915 C 8.39 -3.915 8.39 -3.917 8.39 -3.917 L 8.394 -3.917 L 9.141 -4.424 C 9.143 -4.426 9.143 -4.428 9.145 -4.428 C 9.148 -4.43 9.15 -4.428 9.152 -4.43 L 9.792 -4.964 C 9.792 -4.964 9.792 -4.966 9.795 -4.966 C 9.795 -4.966 9.797 -4.966 9.797 -4.968 L 10.41 -5.529 C 10.413 -5.531 10.413 -5.533 10.415 -5.535 C 10.417 -5.538 10.419 -5.538 10.421 -5.54 L 10.955 -6.153 L 10.955 -6.156 L 10.957 -6.156 L 11.308 -6.578 L 11.115 -6.178 L 10.695 -5.573 L 10.246 -4.937 L 9.717 -4.304 L 9.19 -3.75 L 8.579 -3.192 L 7.947 -2.612 L 7.207 -2.136 C 7.205 -2.136 7.205 -2.134 7.205 -2.134 L 7.202 -2.134 L 6.456 -1.627 L 6.453 -1.627 L 5.742 -1.152 L 5.402 -.996 C 5.4 -.994 5.397 -.991 5.395 -.989 C 5.391 -.987 5.386 -.987 5.384 -.985 L 5.117 -.794 L 4.797 -.582 C 4.793 -.58 4.793 -.576 4.791 -.574 C 4.788 -.571 4.782 -.571 4.779 -.569 L 4.57 -.36 L 4.308 -.151 C 4.306 -.149 4.306 -.149 4.306 -.147 C 4.304 -.147 4.301 -.147 4.301 -.144 L 4.035 .096 C 4.03 .098 4.032 .102 4.028 .107 C 4.026 .109 4.021 .109 4.019 .111 L 3.832 .351 L 3.65 .56 C 3.65 .56 3.65 .562 3.648 .562 C 3.648 .562 3.646 .562 3.646 .565 L 3.432 .831 C 3.43 .836 3.43 .84 3.428 .843 C 3.426 .845 3.421 .845 3.421 .847 L 3.288 1.087 C 3.286 1.087 3.288 1.089 3.286 1.089 C 3.286 1.092 3.283 1.092 3.283 1.092 L 3.017 1.625 C 3.014 1.627 3.017 1.629 3.014 1.632 C 3.012 1.636 3.01 1.636 3.008 1.641 C 3.005 1.647 3.01 1.652 3.01 1.658 C 3.008 1.665 3.003 1.67 3.003 1.676 L 3.014 16.504 L 2.636 16.637 L 2.158 16.797 C 2.156 16.797 2.154 16.802 2.152 16.802 C 2.147 16.804 2.143 16.804 2.141 16.806 L 1.741 17.02 C 1.738 17.02 1.738 17.022 1.738 17.022 C 1.736 17.022 1.736 17.022 1.734 17.024 L .934 17.504 C .931 17.504 .931 17.506 .931 17.506 C .929 17.506 .929 17.506 .927 17.509 L .527 17.775 C .525 17.778 .525 17.78 .522 17.78 C .52 17.782 .518 17.78 .516 17.782 L .198 18.047 L -.149 18.313 C -.151 18.313 -.151 18.316 -.151 18.316 C -.151 18.316 -.153 18.316 -.153 18.318 L -.5 18.611 C -.502 18.613 -.502 18.616 -.505 18.618 C -.507 18.62 -.511 18.62 -.514 18.622 L -.58 18.698 L -.58 .574 L -.347 .293 Z " fill="#ffffff"/>
<path transform="matrix(2.7777777,0,0,-2.7777777,122.00917,201.60776)" d="M 0 0 L -1.974 0 L -1.976 0 L -3.043 .027 L -4.055 .027 L -4.061 .027 L -5.075 .08 L -6.142 .133 C -6.158 .133 -6.169 .145 -6.18 .151 C -6.193 .158 -6.209 .158 -6.218 .169 C -6.229 .18 -6.229 .196 -6.236 .209 C -6.24 .22 -6.249 .231 -6.249 .245 L -6.249 .645 L -6.247 18.536 L -7.191 18.516 L -7.191 -.117 L 1.483 0 Z " fill="#ffffff"/>
<path transform="matrix(2.7777777,0,0,-2.7777777,110.9261,195.4947)" d="M 0 0 L 0 -.002 L .002 0 L 1.011 -.107 L 2.074 -.16 L 2.803 -.18 L 2.067 -.122 L 2.065 -.122 L 1.049 -.067 L 1.045 -.067 L -.022 .04 L -1.007 .12 L -1.872 .189 L -1.872 .151 L -.989 .08 Z " fill="#ffffff"/>
<path transform="matrix(2.7777777,0,0,-2.7777777,170.09416,144.47722)" d="M 0 0 L -.185 .585 L -.393 1.189 L -.656 1.765 L -.976 2.352 L -1.32 2.932 L -1.667 3.492 L -2.034 4.044 L -2.459 4.575 C -2.461 4.577 -2.459 4.579 -2.461 4.582 C -2.463 4.584 -2.465 4.584 -2.465 4.584 L -2.834 5.164 L -3.303 5.684 L -4.05 6.431 C -4.053 6.433 -4.053 6.436 -4.055 6.438 C -4.057 6.44 -4.059 6.44 -4.061 6.442 L -4.248 6.682 C -4.25 6.684 -4.248 6.684 -4.25 6.687 C -4.25 6.687 -4.253 6.687 -4.253 6.689 L -4.435 6.951 L -4.644 7.187 C -4.648 7.189 -4.646 7.194 -4.648 7.198 C -4.653 7.205 -4.659 7.207 -4.659 7.211 L -4.791 7.471 L -4.973 7.732 C -4.975 7.734 -4.973 7.736 -4.975 7.736 C -4.977 7.738 -4.977 7.736 -4.98 7.738 L -5.14 8.005 C -5.142 8.007 -5.14 8.012 -5.142 8.014 C -5.144 8.018 -5.148 8.018 -5.148 8.023 L -5.251 8.281 L -5.406 8.541 C -5.409 8.543 -5.406 8.547 -5.409 8.55 C -5.411 8.554 -5.415 8.554 -5.415 8.559 L -5.462 8.676 L -5.462 -9.043 L -5.386 -9.292 L -5.306 -9.555 L -5.204 -9.81 L -5.046 -10.128 L -4.942 -10.337 L -4.786 -10.6 L -4.604 -10.862 C -4.602 -10.864 -4.604 -10.869 -4.602 -10.871 C -4.599 -10.873 -4.597 -10.873 -4.595 -10.877 L -4.468 -11.131 L -4.266 -11.36 C -4.264 -11.362 -4.266 -11.364 -4.264 -11.367 C -4.262 -11.369 -4.259 -11.369 -4.257 -11.371 L -4.075 -11.633 L -3.89 -11.873 L -3.15 -12.64 L -3.15 -12.643 C -3.148 -12.643 -3.148 -12.643 -3.148 -12.645 L -2.668 -13.178 C -2.665 -13.181 -2.665 -13.185 -2.663 -13.187 C -2.661 -13.189 -2.656 -13.189 -2.656 -13.192 L -2.285 -13.75 L -1.861 -14.308 L -1.861 -14.31 L -1.858 -14.312 L -1.485 -14.846 C -1.483 -14.848 -1.485 -14.85 -1.483 -14.852 C -1.481 -14.854 -1.478 -14.854 -1.478 -14.857 L -1.134 -15.466 L -.787 -16.026 C -.785 -16.028 -.787 -16.028 -.785 -16.03 L -.78 -16.035 L -.46 -16.648 C -.458 -16.648 -.46 -16.651 -.46 -16.651 C -.458 -16.651 -.458 -16.651 -.458 -16.653 L -.191 -17.213 C -.189 -17.215 -.193 -17.218 -.191 -17.22 C -.189 -17.222 -.187 -17.222 -.187 -17.224 L .027 -17.811 L .027 -17.813 C .027 -17.815 .029 -17.815 .029 -17.815 L .18 -18.309 L .185 -2.188 C .182 -2.186 .18 -2.183 .18 -2.181 C .18 -2.179 .182 -2.177 .185 -2.174 L .185 -1.977 C .182 -1.974 .18 -1.972 .18 -1.97 C .18 -1.968 .182 -1.965 .185 -1.963 L .185 -1.788 C .182 -1.785 .18 -1.783 .18 -1.781 C .18 -1.779 .182 -1.777 .185 -1.774 L .185 -1.283 C .182 -1.281 .18 -1.279 .18 -1.276 C .18 -1.274 .182 -1.272 .185 -1.27 L .185 -1.254 C .182 -1.252 .18 -1.25 .18 -1.247 C .18 -1.245 .182 -1.243 .185 -1.241 L .185 -1.225 C .182 -1.223 .18 -1.221 .18 -1.219 C .18 -1.216 .182 -1.214 .185 -1.212 L .185 -1.174 C .182 -1.172 .18 -1.17 .18 -1.167 C .18 -1.165 .182 -1.163 .185 -1.161 L .185 -1.145 C .182 -1.143 .18 -1.141 .18 -1.139 C .18 -1.136 .182 -1.134 .185 -1.132 L .185 -.907 C .182 -.905 .18 -.903 .18 -.901 C .18 -.898 .182 -.896 .185 -.894 L .185 -.598 L 0 0 Z " fill="#ffffff"/>
<path transform="matrix(2.7777777,0,0,-2.7777777,230.81945,195.38417)" d="M 0 0 L -1.014 -.107 L -1.025 -.107 L -2.003 -.16 L -2.725 -.22 L -2.018 -.2 L -.954 -.147 L .029 -.04 L .031 -.04 L .033 -.04 L 1.047 .04 L 1.956 .111 L 1.956 .149 L 1.065 .08 L 1.06 .08 Z " fill="#ffffff"/>
<path transform="matrix(2.7777777,0,0,-2.7777777,211.13999,201.53333)" d="M 0 0 L -.002 0 L -.983 .053 L -.985 .053 L -1.998 .078 L -3.012 .104 L -3.017 .104 L -4.084 .158 L -5.146 .187 L -5.148 .187 L -6.133 .213 L -7.194 .213 L -8.183 .187 L -9.25 .187 L -10.317 .158 L -10.319 .158 L -10.626 .138 L .34 -.009 L .002 0 Z " fill="#ffffff"/>
<path transform="matrix(2.7777777,0,0,-2.7777777,216.70446,195.71749)" d="M 0 0 L 1.007 .08 L 1.009 .08 L 2.076 .16 L 2.078 .16 L 2.081 .16 L 3.068 .213 L 4.048 .267 L 4.05 .267 L 6.078 .48 L 7.043 .578 L 7.038 18.347 L 7.038 18.811 L 6.52 18.776 L 6.52 1.49 C 6.52 1.474 6.509 1.458 6.502 1.445 C 6.498 1.436 6.498 1.427 6.491 1.418 C 6.471 1.387 6.44 1.363 6.405 1.363 C 6.393 1.363 6.387 1.37 6.376 1.372 L 5.753 1.296 L 5.086 1.19 L 5.082 1.19 L 5.08 1.19 L 4.333 1.109 L 4.326 1.109 L 3.69 1.056 L 3.684 1.056 L 2.941 1.003 L 2.279 .923 L 2.27 .923 L 2.267 .923 L 1.547 .896 L 1.545 .896 L .862 .816 C .858 .816 .854 .814 .849 .814 L .133 .814 L -.534 .787 L -.538 .787 L -1.281 .787 L -2.001 .76 L -2.005 .76 L -3.203 .76 L -4.484 .734 L -4.486 .734 L -5.651 .654 L -6.927 .547 L -8.127 .414 L -8.132 .414 L -9.328 .254 L -9.332 .254 L -10.602 .096 L -11.775 -.144 L -11.778 -.144 L -13.003 -.384 L -13.005 -.384 L -14.118 -.649 L -14.932 -.853 L -14.414 -.802 L -13.4 -.696 L -12.336 -.589 L -11.349 -.482 L -11.346 -.482 L -10.279 -.375 C -10.277 -.375 -10.277 -.378 -10.275 -.378 C -10.273 -.378 -10.273 -.375 -10.273 -.375 L -9.286 -.322 L -9.283 -.322 L -9.281 -.322 L -8.214 -.295 L -7.207 -.215 L -7.2 -.215 L -7.198 -.215 L -6.131 -.189 L -5.118 -.162 L -5.115 -.162 L -4.048 -.162 L -4.046 -.162 L -3.066 -.109 L -3.063 -.109 L -3.061 -.109 L -2.076 -.082 L -1.009 -.029 L -1.007 -.029 L -1.005 -.029 Z " fill="#ffffff"/>
<path transform="matrix(2.7777777,0,0,-2.7777777,174.27555,194.83388)" d="M 0 0 C .002 .002 .002 .004 .004 .004 L .805 .618 C .807 .62 .807 .618 .809 .62 C .811 .62 .811 .622 .811 .622 L 1.612 1.156 C 1.614 1.158 1.616 1.156 1.618 1.158 C 1.621 1.158 1.621 1.16 1.621 1.163 L 2.474 1.643 L 2.479 1.643 C 2.481 1.643 2.481 1.645 2.483 1.645 L 3.363 2.072 L 3.366 2.072 C 3.366 2.072 3.366 2.074 3.368 2.074 L 4.301 2.501 C 4.304 2.503 4.306 2.501 4.308 2.501 C 4.31 2.503 4.313 2.505 4.315 2.505 L 5.328 2.825 L 5.331 2.825 L 5.333 2.825 L 6.32 3.119 L 6.324 3.119 C 6.327 3.119 6.327 3.121 6.329 3.121 L 7.396 3.361 C 7.398 3.361 7.398 3.359 7.4 3.361 C 7.403 3.361 7.403 3.363 7.405 3.363 L 8.472 3.523 L 8.474 3.523 L 8.476 3.523 L 9.541 3.657 L 10.148 3.737 L 10.682 3.844 C 10.684 3.844 10.684 3.841 10.686 3.844 C 10.688 3.844 10.688 3.846 10.69 3.846 L 11.271 3.926 L 11.8 4.057 L 12.324 4.215 L 12.847 4.424 L 13.325 4.662 L 13.327 4.662 C 13.329 4.662 13.329 4.664 13.329 4.664 L 13.858 4.902 L 14.227 5.113 L 14.698 5.429 L 15.096 5.72 L 15.45 5.978 L 15.432 20.83 L 15.432 24.182 L 15.221 24 C 15.219 23.998 15.216 24 15.216 23.998 C 15.214 23.995 15.214 23.995 15.214 23.993 L 14.81 23.7 C 14.805 23.698 14.803 23.698 14.801 23.698 C 14.799 23.695 14.799 23.693 14.796 23.693 L 14.325 23.431 L 13.956 23.166 C 13.952 23.164 13.947 23.164 13.943 23.162 C 13.938 23.16 13.938 23.155 13.936 23.155 L 13.402 22.915 L 12.927 22.677 C 12.922 22.675 12.918 22.675 12.913 22.673 C 12.911 22.673 12.911 22.668 12.909 22.668 L 11.842 22.348 C 11.837 22.346 11.835 22.348 11.833 22.346 C 11.831 22.346 11.831 22.344 11.831 22.344 L 11.791 22.335 L 11.791 7.409 C 11.791 7.407 11.789 7.407 11.789 7.405 C 11.786 7.394 11.78 7.385 11.777 7.374 C 11.773 7.365 11.777 7.354 11.771 7.345 C 11.769 7.34 11.764 7.343 11.762 7.34 C 11.757 7.334 11.755 7.329 11.751 7.325 C 11.749 7.323 11.749 7.323 11.749 7.32 L 11.411 7.034 L 11.146 6.742 C 11.144 6.74 11.139 6.74 11.137 6.738 C 11.135 6.736 11.135 6.731 11.133 6.731 L 10.813 6.464 C 10.81 6.462 10.808 6.464 10.806 6.462 C 10.804 6.46 10.804 6.458 10.802 6.458 L 10.001 5.924 C 9.999 5.924 9.999 5.924 9.997 5.922 C 9.995 5.922 9.995 5.92 9.995 5.92 L 9.194 5.44 C 9.192 5.437 9.19 5.44 9.188 5.437 C 9.185 5.435 9.185 5.433 9.183 5.433 L 8.783 5.246 L 8.781 5.246 L 8.33 5.035 C 8.325 5.033 8.323 5.033 8.321 5.033 C 8.318 5.033 8.318 5.031 8.316 5.031 L 7.836 4.871 L 7.832 4.871 C 7.829 4.871 7.829 4.868 7.829 4.868 L 7.349 4.735 L 7.347 4.735 L 6.896 4.602 L 6.894 4.602 L 5.967 4.337 L 5.12 3.992 L 5.117 3.992 L 4.239 3.648 L 3.45 3.254 L 2.654 2.776 L 1.941 2.301 L 1.258 1.776 L .678 1.196 L .147 .611 L -.325 -.018 L -.665 -.598 L -.016 -.002 C -.004 0 -.002 0 0 0 Z " fill="#ffffff"/>
<path transform="matrix(2.7777777,0,0,-2.7777777,218.84,196.2536)" d="M 0 0 L .298 .007 L .8 .047 L .253 .02 L .249 .02 Z " fill="#ffffff"/>
<path transform="matrix(2.7777777,0,0,-2.7777777,222.55806,136.54166)" d="M 0 0 L -.002 0 L -.536 -.107 L -.538 -.107 L -1.152 -.213 L -1.16 -.213 L -1.163 -.213 L -1.672 -.258 L -1.672 -15.066 C -1.672 -15.068 -1.674 -15.068 -1.674 -15.07 C -1.676 -15.083 -1.685 -15.095 -1.689 -15.106 C -1.696 -15.121 -1.698 -15.137 -1.709 -15.146 C -1.712 -15.148 -1.709 -15.148 -1.712 -15.15 L -2.085 -15.47 C -2.087 -15.47 -2.087 -15.47 -2.09 -15.472 C -2.092 -15.475 -2.092 -15.475 -2.092 -15.477 L -2.519 -15.797 C -2.521 -15.799 -2.525 -15.799 -2.528 -15.799 C -2.53 -15.801 -2.53 -15.804 -2.532 -15.804 L -3.439 -16.337 C -3.441 -16.339 -3.446 -16.339 -3.448 -16.339 C -3.45 -16.339 -3.45 -16.342 -3.45 -16.344 L -3.93 -16.557 L -4.464 -16.797 L -4.468 -16.797 C -4.468 -16.797 -4.468 -16.8 -4.47 -16.8 L -5.004 -17.013 C -5.006 -17.015 -5.008 -17.013 -5.011 -17.015 C -5.013 -17.015 -5.013 -17.017 -5.013 -17.017 L -5.546 -17.178 L -5.551 -17.178 C -5.553 -17.178 -5.553 -17.18 -5.553 -17.18 L -6.087 -17.313 L -6.091 -17.313 L -6.093 -17.313 L -6.627 -17.42 L -6.631 -17.42 L -7.216 -17.527 C -7.22 -17.527 -7.223 -17.527 -7.227 -17.529 L -7.229 -17.529 L -7.843 -17.582 L -7.845 -17.582 L -8.903 -17.713 L -8.905 -17.713 L -9.97 -17.873 L -10.951 -18.111 L -10.953 -18.111 L -11.991 -18.402 L -12.951 -18.749 L -13.849 -19.145 L -14.803 -19.567 L -15.652 -20.072 L -16.444 -20.599 L -17.184 -21.181 L -17.695 -21.67 L -17.635 -21.637 L -17.633 -21.637 C -17.633 -21.637 -17.633 -21.635 -17.631 -21.635 L -16.617 -21.074 L -16.613 -21.074 C -16.61 -21.074 -16.61 -21.072 -16.61 -21.072 L -15.49 -20.539 L -15.488 -20.539 C -15.486 -20.539 -15.486 -20.536 -15.486 -20.536 L -14.365 -20.056 C -14.363 -20.054 -14.361 -20.056 -14.358 -20.056 C -14.356 -20.054 -14.356 -20.052 -14.354 -20.052 L -13.127 -19.652 L -11.953 -19.278 C -11.951 -19.278 -11.949 -19.28 -11.946 -19.278 C -11.944 -19.278 -11.944 -19.276 -11.942 -19.274 L -10.662 -19.007 L -10.659 -19.007 C -10.657 -19.007 -10.657 -19.005 -10.657 -19.005 L -9.377 -18.791 C -9.374 -18.791 -9.374 -18.794 -9.372 -18.794 C -9.37 -18.794 -9.37 -18.791 -9.368 -18.791 L -8.034 -18.658 L -8.032 -18.658 L -8.03 -18.658 L -6.696 -18.551 L -6.689 -18.551 L -5.355 -18.525 L -5.353 -18.525 C -5.351 -18.525 -5.351 -18.527 -5.351 -18.527 C -5.348 -18.527 -5.348 -18.525 -5.346 -18.525 L -4.092 -18.578 C -4.09 -18.578 -4.09 -18.58 -4.09 -18.58 L -4.088 -18.58 L -3.481 -18.634 L -2.901 -18.634 L -2.321 -18.58 L -1.787 -18.527 L -1.178 -18.447 L -1.176 -18.447 C -1.174 -18.447 -1.174 -18.445 -1.174 -18.445 L -.569 -18.391 L -.042 -18.26 L -.04 -18.26 C -.04 -18.26 -.04 -18.258 -.038 -18.258 L .542 -18.127 L 1.069 -17.942 L 1.074 -17.942 C 1.076 -17.942 1.076 -17.94 1.076 -17.94 L 1.605 -17.782 L 2.076 -17.598 L 2.541 -17.389 L 2.532 -1.489 L 2.532 .823 L 2.156 .671 L 1.678 .46 C 1.674 .458 1.672 .458 1.667 .458 C 1.665 .458 1.665 .456 1.663 .456 L .596 .136 C .594 .136 .591 .136 .589 .133 L .587 .131 L 0 -.002 L 0 0 Z " fill="#ffffff"/>
<path transform="matrix(2.7777777,0,0,-2.7777777,174.07166,192.65389)" d="M 0 0 C .002 .002 .004 .002 .007 .004 C .009 .007 .009 .009 .009 .011 L .596 .625 C .598 .627 .598 .625 .6 .627 C .6 .627 .6 .629 .602 .629 L 1.189 1.189 C 1.191 1.192 1.194 1.192 1.196 1.192 C 1.198 1.194 1.198 1.196 1.2 1.198 L 1.894 1.732 L 1.896 1.732 C 1.898 1.732 1.896 1.734 1.898 1.734 L 2.619 2.241 L 2.623 2.241 L 2.625 2.243 L 3.346 2.697 C 3.348 2.699 3.35 2.697 3.352 2.699 C 3.354 2.701 3.354 2.703 3.357 2.703 L 4.157 3.103 L 4.161 3.103 C 4.164 3.103 4.164 3.106 4.166 3.106 L 5.046 3.479 L 5.051 3.479 C 5.053 3.479 5.053 3.481 5.055 3.481 L 5.989 3.801 L 5.993 3.801 C 5.995 3.801 5.995 3.804 5.995 3.804 L 6.929 4.07 L 6.931 4.07 L 7.383 4.204 L 7.385 4.204 L 7.387 4.204 L 7.865 4.335 L 8.33 4.49 L 8.694 4.699 C 8.696 4.702 8.699 4.699 8.701 4.702 C 8.703 4.702 8.703 4.706 8.705 4.706 L 9.179 4.917 L 9.574 5.128 L 9.972 5.369 L 10.368 5.606 L 10.706 5.864 L 11.022 6.156 L 11.337 6.445 L 11.573 6.727 L 11.557 21.619 L 11.557 24.844 L 11.486 24.769 C 11.484 24.767 11.482 24.767 11.48 24.767 C 11.477 24.764 11.477 24.762 11.477 24.762 L 11.157 24.469 C 11.155 24.469 11.155 24.469 11.155 24.467 C 11.153 24.467 11.153 24.464 11.153 24.464 L 10.833 24.198 L 10.83 24.198 C 10.828 24.198 10.828 24.195 10.828 24.195 L 10.481 23.929 C 10.479 23.926 10.477 23.929 10.477 23.926 C 10.475 23.924 10.475 23.924 10.475 23.922 L 10.075 23.655 C 10.072 23.655 10.072 23.655 10.07 23.653 C 10.068 23.653 10.068 23.651 10.068 23.651 L 9.268 23.171 C 9.263 23.168 9.261 23.168 9.259 23.168 C 9.257 23.166 9.257 23.164 9.254 23.164 L 8.774 22.95 L 8.772 22.95 L 8.398 22.79 C 8.396 22.788 8.394 22.79 8.392 22.788 C 8.39 22.788 8.39 22.786 8.39 22.786 L 7.987 22.653 L 7.987 7.823 C 7.987 7.811 7.978 7.807 7.976 7.798 C 7.974 7.789 7.978 7.78 7.974 7.771 L 7.849 7.509 L 7.716 7.242 C 7.712 7.236 7.705 7.233 7.703 7.229 C 7.7 7.227 7.7 7.222 7.698 7.218 L 7.496 6.993 L 7.396 6.744 C 7.391 6.733 7.385 6.729 7.378 6.722 C 7.374 6.718 7.376 6.711 7.371 6.707 L 7.158 6.493 L 6.949 6.258 C 6.947 6.255 6.945 6.255 6.942 6.255 C 6.94 6.253 6.94 6.251 6.94 6.249 L 6.673 6.009 C 6.671 6.006 6.671 6.009 6.669 6.006 C 6.667 6.004 6.667 6.004 6.667 6.002 L 5.866 5.362 C 5.864 5.359 5.864 5.362 5.862 5.359 C 5.86 5.359 5.862 5.357 5.86 5.357 L 5.593 5.171 C 5.589 5.168 5.586 5.168 5.582 5.168 C 5.58 5.166 5.58 5.164 5.577 5.162 L 5.262 5.004 L 4.466 4.526 L 4.464 4.526 L 3.728 4.026 L 3.088 3.546 L 3.085 3.546 L 2.401 2.965 L 1.818 2.41 L 1.289 1.854 L .76 1.22 L .282 .582 L -.084 -.02 L -.229 -.296 Z " fill="#ffffff"/>
<path transform="matrix(2.7777777,0,0,-2.7777777,186.24222,173.64806)" d="M 0 0 C -.002 -.004 -.007 -.004 -.009 -.009 C -.011 -.011 -.009 -.013 -.011 -.016 L -.193 -.278 L -.351 -.542 C -.353 -.545 -.358 -.545 -.36 -.547 C -.362 -.551 -.362 -.556 -.365 -.558 L -.547 -.767 L -.549 -.769 L -.731 -1.029 C -.734 -1.031 -.736 -1.031 -.738 -1.031 C -.74 -1.034 -.74 -1.038 -.74 -1.04 L -.949 -1.276 L -1.163 -1.543 C -1.165 -1.543 -1.165 -1.543 -1.165 -1.545 L -1.805 -2.319 C -1.805 -2.319 -1.807 -2.319 -1.807 -2.321 C -1.81 -2.321 -1.807 -2.323 -1.81 -2.323 L -2.29 -2.857 L -2.765 -3.383 L -3.134 -3.937 C -3.134 -3.939 -3.137 -3.937 -3.137 -3.939 C -3.139 -3.941 -3.139 -3.941 -3.139 -3.944 L -3.559 -4.497 L -3.877 -5.077 L -3.879 -5.08 L -3.879 -5.082 L -4.197 -5.638 L -4.462 -6.244 C -4.462 -6.244 -4.464 -6.244 -4.464 -6.247 L -4.537 -6.409 L -4.344 -6.089 C -4.342 -6.087 -4.339 -6.087 -4.337 -6.084 C -4.335 -6.082 -4.337 -6.08 -4.335 -6.078 L -3.855 -5.437 C -3.852 -5.435 -3.85 -5.435 -3.85 -5.435 C -3.848 -5.433 -3.848 -5.431 -3.848 -5.429 L -2.781 -4.255 C -2.779 -4.253 -2.779 -4.255 -2.777 -4.253 C -2.777 -4.25 -2.777 -4.25 -2.774 -4.25 L -2.187 -3.664 C -2.185 -3.661 -2.183 -3.664 -2.183 -3.661 C -2.181 -3.659 -2.181 -3.657 -2.181 -3.657 L -1.514 -3.097 C -1.512 -3.094 -1.509 -3.097 -1.507 -3.094 C -1.505 -3.092 -1.505 -3.092 -1.505 -3.09 L -.785 -2.583 L -.783 -2.583 C -.78 -2.583 -.78 -2.581 -.78 -2.581 L -.033 -2.101 L -.031 -2.101 C -.029 -2.101 -.029 -2.099 -.029 -2.099 L 1.038 -1.458 L 1.352 -1.249 L 1.614 -1.067 L 1.872 -.86 L 2.078 -.629 C 2.083 -.625 2.087 -.627 2.09 -.622 C 2.092 -.618 2.094 -.614 2.098 -.611 L 2.35 -.434 L 2.552 -.18 L 2.739 .06 C 2.741 .062 2.741 .062 2.743 .062 C 2.745 .062 2.743 .064 2.745 .064 L 2.925 .269 L 3.077 .52 L 3.179 .778 C 3.181 .782 3.186 .782 3.186 .785 C 3.188 .789 3.186 .791 3.188 .794 L 3.332 1.034 L 3.332 19.04 L 3.283 18.923 C 3.281 18.918 3.279 18.918 3.277 18.914 C 3.274 18.911 3.277 18.909 3.274 18.905 L 3.114 18.638 C 3.112 18.636 3.11 18.636 3.108 18.636 C 3.106 18.634 3.108 18.629 3.106 18.627 L 2.919 18.387 C 2.917 18.385 2.917 18.387 2.914 18.385 C 2.912 18.382 2.914 18.382 2.912 18.38 L 2.725 18.167 L 2.512 17.927 C 2.51 17.924 2.508 17.924 2.505 17.924 C 2.503 17.922 2.503 17.92 2.503 17.918 L 2.241 17.682 L 2.032 17.446 C 2.027 17.442 2.023 17.444 2.021 17.44 C 2.016 17.435 2.016 17.431 2.012 17.429 L 1.749 17.246 L 1.483 17.035 C 1.48 17.033 1.476 17.033 1.474 17.031 C 1.472 17.029 1.472 17.026 1.469 17.024 L 1.152 16.84 L .889 16.655 C .887 16.653 .883 16.653 .88 16.653 C .878 16.651 .878 16.648 .876 16.648 L .536 16.468 L .536 1.439 C .536 1.432 .529 1.427 .529 1.423 C .527 1.416 .533 1.412 .531 1.407 L .451 1.141 L .449 1.138 L .449 1.136 L .342 .818 L .262 .552 C .26 .547 .258 .545 .256 .543 C .253 .54 .258 .536 .256 .534 L .122 .267 Z " fill="#ffffff"/>
<path transform="matrix(2.7777777,0,0,-2.7777777,177.20777,196.76721)" d="M 0 0 C .002 0 .002 .002 .004 .002 L 1.178 .269 L 2.405 .536 C 2.408 .536 2.408 .534 2.41 .536 C 2.412 .536 2.412 .538 2.414 .538 L 3.588 .725 L 3.59 .725 L 4.817 .911 L 4.819 .911 L 4.822 .911 L 6.075 1.072 L 6.078 1.072 C 6.08 1.072 6.08 1.074 6.08 1.074 L 7.28 1.18 L 7.283 1.18 L 8.563 1.287 L 8.565 1.287 L 9.739 1.367 L 9.746 1.367 L 11.026 1.394 L 12.227 1.421 L 12.229 1.421 L 13.691 1.421 L 14.358 1.447 L 14.363 1.447 L 15.076 1.501 L 15.079 1.501 C 15.081 1.501 15.081 1.503 15.081 1.503 L 15.775 1.529 L 16.495 1.556 L 17.153 1.636 L 17.155 1.636 C 17.157 1.636 17.157 1.638 17.159 1.638 L 17.904 1.692 L 18.542 1.772 L 19.233 1.878 C 19.236 1.878 19.236 1.876 19.238 1.876 C 19.24 1.876 19.24 1.878 19.242 1.878 L 19.958 1.932 L 20.525 2.023 L 20.509 19.251 C 20.509 19.253 20.507 19.253 20.507 19.256 C 20.507 19.258 20.509 19.258 20.509 19.26 L 20.509 20.245 L 19.974 20.16 C 19.969 20.16 19.967 20.16 19.965 20.158 L 19.247 20.105 L 19.245 20.105 L 19.082 20.089 L 19.082 4.188 C 19.082 4.181 19.076 4.177 19.073 4.17 C 19.071 4.155 19.064 4.144 19.058 4.133 C 19.049 4.119 19.042 4.11 19.029 4.101 C 19.022 4.097 19.022 4.09 19.018 4.088 L 18.538 3.848 C 18.535 3.846 18.533 3.848 18.531 3.846 C 18.529 3.846 18.529 3.844 18.529 3.844 L 17.995 3.63 C 17.993 3.628 17.991 3.63 17.989 3.628 C 17.986 3.628 17.986 3.626 17.986 3.626 L 16.919 3.306 L 16.915 3.306 C 16.913 3.306 16.913 3.303 16.913 3.303 L 16.379 3.17 L 16.377 3.17 L 15.79 3.037 L 15.783 3.037 L 15.17 2.93 L 15.161 2.93 L 15.159 2.93 L 14.625 2.877 L 14.623 2.877 L 14.012 2.823 L 14.007 2.823 L 13.42 2.797 L 13.414 2.797 L 12.827 2.797 L 12.822 2.797 L 12.209 2.823 L 10.955 2.877 L 9.628 2.877 L 8.303 2.77 L 7.027 2.612 L 5.704 2.401 L 4.506 2.107 L 4.504 2.107 L 3.257 1.763 L 2.034 1.392 L .925 .916 L -.14 .382 L -.142 .382 L -1.198 -.173 L -1.569 -.429 L -1.156 -.316 L -1.154 -.316 L -.007 .004 C -.002 0 0 0 0 0 Z " fill="#ffffff"/>
<path transform="matrix(2.7777777,0,0,-2.7777777,173.08972,190.70333)" d="M 0 0 C 0 .002 -.002 .002 0 .004 L .345 .614 L .611 1.172 C .611 1.174 .616 1.174 .616 1.176 C .618 1.178 .616 1.18 .618 1.183 L .991 1.796 L .994 1.798 L .994 1.801 L 1.34 2.334 C 1.343 2.336 1.343 2.334 1.343 2.336 C 1.345 2.336 1.343 2.339 1.345 2.339 L 1.745 2.899 C 1.747 2.901 1.75 2.901 1.75 2.903 C 1.752 2.905 1.752 2.908 1.752 2.908 L 2.232 3.466 L 2.232 3.468 L 2.685 4.001 C 2.688 4.001 2.688 4.001 2.688 4.004 C 2.69 4.004 2.69 4.006 2.69 4.006 L 3.41 4.779 L 3.412 4.779 L 3.619 5.013 L 3.83 5.277 L 4.01 5.509 L 4.139 5.764 C 4.141 5.769 4.146 5.769 4.148 5.773 C 4.15 5.778 4.15 5.782 4.153 5.784 L 4.355 6.038 L 4.455 6.289 C 4.457 6.293 4.464 6.296 4.466 6.3 C 4.468 6.304 4.466 6.311 4.47 6.316 L 4.622 6.516 L 4.722 6.814 L 4.802 7.08 C 4.804 7.085 4.808 7.085 4.808 7.089 C 4.811 7.094 4.806 7.096 4.811 7.1 L 4.937 7.354 L 4.986 7.594 L 4.975 22.624 L 4.975 25.351 L 4.931 25.204 C 4.931 25.202 4.928 25.202 4.926 25.2 C 4.926 25.198 4.928 25.198 4.926 25.196 L 4.819 24.929 C 4.817 24.924 4.815 24.924 4.813 24.92 C 4.811 24.918 4.813 24.915 4.811 24.911 L 4.655 24.651 L 4.551 24.393 C 4.548 24.386 4.542 24.382 4.539 24.378 C 4.535 24.373 4.537 24.369 4.535 24.364 L 4.33 24.106 L 4.201 23.851 C 4.199 23.846 4.195 23.844 4.19 23.84 C 4.188 23.837 4.19 23.833 4.188 23.831 L 4.001 23.591 L 3.999 23.591 L 3.786 23.324 C 3.784 23.322 3.784 23.324 3.784 23.322 C 3.781 23.319 3.781 23.319 3.781 23.317 L 3.568 23.077 C 3.566 23.077 3.566 23.077 3.563 23.075 L 3.563 23.073 L 2.848 22.33 L 2.396 21.799 L 1.916 21.212 L 1.914 21.212 L 1.521 20.685 L 1.176 20.129 C 1.176 20.129 1.174 20.129 1.174 20.127 C 1.172 20.127 1.174 20.125 1.172 20.125 L .805 19.571 L .54 18.993 C .538 18.991 .536 18.989 .536 18.987 C .534 18.985 .536 18.982 .534 18.982 L .189 18.402 L -.071 17.829 L -.256 17.219 C -.256 17.217 -.258 17.217 -.258 17.215 L -.258 17.213 L -.471 16.626 L -.676 16.035 L -.676 15.739 C -.676 15.737 -.674 15.734 -.674 15.732 C -.674 15.73 -.676 15.728 -.676 15.726 L -.676 15.499 C -.676 15.497 -.674 15.494 -.674 15.492 C -.674 15.49 -.676 15.488 -.676 15.486 L -.676 15.468 C -.676 15.466 -.674 15.463 -.674 15.461 C -.674 15.459 -.676 15.457 -.676 15.454 L -.676 15.414 C -.676 15.412 -.674 15.41 -.674 15.408 C -.674 15.405 -.676 15.403 -.676 15.401 L -.676 15.383 C -.676 15.381 -.674 15.379 -.674 15.377 C -.674 15.374 -.676 15.372 -.676 15.37 L -.676 15.352 C -.676 15.35 -.674 15.348 -.674 15.345 C -.674 15.343 -.676 15.341 -.676 15.339 L -.676 14.843 C -.676 14.841 -.674 14.839 -.674 14.836 C -.674 14.834 -.676 14.832 -.676 14.83 L -.676 14.652 C -.676 14.65 -.674 14.647 -.674 14.645 C -.674 14.643 -.676 14.641 -.676 14.639 L -.676 14.438 C -.676 14.436 -.674 14.434 -.674 14.432 C -.674 14.43 -.676 14.427 -.676 14.425 L -.676 -1.783 L -.471 -1.196 L -.285 -.609 C -.285 -.607 -.28 -.604 -.28 -.602 C -.278 -.6 -.282 -.596 -.278 -.593 L -.011 -.033 C -.004 -.002 -.002 -.002 0 0 Z " fill="#ffffff"/>
<path transform="matrix(2.7777777,0,0,-2.7777777,237.03833,196.10637)" d="M 0 0 L 0 -1.734 C 0 -1.747 -.011 -1.758 -.016 -1.77 C -.022 -1.783 -.022 -1.801 -.031 -1.81 C -.042 -1.821 -.056 -1.821 -.069 -1.827 C -.08 -1.834 -.091 -1.845 -.107 -1.845 L -1.12 -1.898 L -1.127 -1.898 L -2.107 -1.952 L -2.114 -1.952 L -3.099 -1.952 L -4.166 -1.979 L -4.17 -1.979 L -5.184 -1.985 L -7.634 -1.985 L 1.052 -2.103 L 1.052 16.533 L -.002 16.555 Z " fill="#ffffff"/>
<path transform="matrix(2.7777777,0,0,-2.7777777,0,333.3333)" d="M 30.437 32.376 L 89.567 32.376 L 89.567 48.466 L 30.437 48.466 Z " fill="#0b1148"/>
<path transform="matrix(2.7777777,0,0,-2.7777777,0,333.3333)" d="M 85.238 33.776 L 86.809 33.776 L 86.809 49.866 L 85.238 49.866 Z " fill="#0b1148"/>
<path transform="matrix(2.7777777,0,0,-2.7777777,0,333.3333)" d="M 36.586 33.776 L 38.156999 33.776 L 38.156999 49.866 L 36.586 49.866 Z " fill="#0b1148"/>
<symbol id="font_0_13">
<path d="M .31300003 .762 C .35700003 .762 .3986667 .7526667 .43800003 .734 C .47800002 .7153334 .51100006 .69033339 .53700008 .65900006 C .563 .6276667 .5786667 .59366676 .58400008 .55700007 L .58500006 .55 C .58500006 .5473333 .58400008 .5453333 .582 .544 C .5806667 .5426667 .57900008 .542 .577 .542 L .50200006 .536 L .5 .536 C .49800004 .536 .49633337 .5366667 .495 .538 C .49366669 .54 .49266673 .5426667 .49200005 .546 C .48200003 .58933338 .4613334 .624 .43000005 .65000006 C .3986667 .67600008 .36066667 .68899998 .316 .689 C .246 .68899998 .19233334 .66300007 .155 .611 C .11833334 .5596667 .1 .4826667 .1 .38 C .1 .27933336 .11833334 .20333334 .155 .15200001 C .19233334 .10133334 .24766667 .076 .321 .076 C .36833335 .076 .40766669 .08733333 .439 .11 C .47100006 .13333334 .4966667 .1696667 .51600006 .21900001 C .5173333 .22366667 .5213334 .22500003 .52800008 .22300002 L .587 .20900002 C .5916667 .20766668 .59333339 .20300001 .592 .19500001 C .582 .16166668 .5646667 .13000001 .54 .1 C .51533338 .07066667 .48400007 .04666667 .44600005 .028 C .40800003 .009333334 .365 0 .31700004 0 C .25100003 0 .19433336 .015333335 .14700002 .046000005 C .09966668 .07666667 .06333333 .120666678 .038000004 .17800002 C .012666668 .23533334 0 .3033333 0 .382 C 0 .46066667 .0123333339 .52833339 .037 .58500006 C .06233333 .6423333 .09833334 .68600007 .14500001 .716 C .19233334 .74666669 .24833335 .762 .31300003 .762 Z "/>
</symbol>
<symbol id="font_0_116">
<path d="M .013999999 0 C .004666666 0 0 .0043333338 0 .013 L 0 .517 C 0 .5256667 .0036666666 .53000006 .011 .53000006 L .069000009 .53000006 C .07633334 .53000006 .08 .5263334 .08 .51900008 L .08 .45400004 C .08 .45000003 .081 .44766668 .083000008 .44700004 C .085666667 .44633333 .08833333 .44766668 .091000009 .45100004 C .14166667 .51033338 .19333335 .54 .246 .54 C .26933334 .54 .28100003 .5356667 .28100003 .527 L .28100003 .467 C .28100003 .46033336 .27800004 .45766668 .272 .45900003 C .26000003 .461 .245 .462 .22700002 .462 C .20766668 .462 .18666667 .45633338 .164 .44500003 C .14133334 .4336667 .12233335 .41900004 .10700001 .40100003 C .091666679 .38300003 .084000017 .3646667 .08400001 .34600003 L .08400001 .015000001 C .084000017 .0050000005 .079 0 .069000009 0 L .013999999 0 Z "/>
</symbol>
<symbol id="font_0_dd">
<path d="M .091000009 .64400008 C .091 .63733336 .08966667 .63233336 .08700001 .629 C .08433334 .6263333 .07966667 .625 .073 .625 L .015000001 .625 C .0050000005 .625 0 .6306667 0 .642 L 0 .726 C 0 .7366667 .004666669 .74200007 .014000006 .74200007 L .07700001 .74200007 C .08100001 .74200007 .08433334 .7406667 .08700001 .73800006 C .08966667 .7353334 .091 .73166677 .091000009 .72700008 L .091000009 .64400008 M .08700001 .017 C .08700001 .010333334 .08566668 .005666667 .083000008 .003 C .080333348 .001 .07566667 0 .069000009 0 L .018000007 0 C .012000005 0 .008000004 .001 .0060000049 .003 C .004000006 .0050000005 .003000006 .008666667 .003000006 .014 L .003000006 .51600006 C .003000006 .52533337 .0070000046 .53000006 .015000001 .53000006 L .076000008 .53000006 C .08333334 .53000006 .08700001 .5256667 .08700001 .517 L .08700001 .017 Z "/>
</symbol>
<symbol id="font_0_11d">
<path d="M .37 .423 C .35600005 .4436667 .33666668 .46000005 .312 .472 C .28800003 .48466669 .26000003 .49100004 .22800002 .49100004 C .19133334 .49100004 .16133334 .48300005 .138 .467 C .11466667 .45166669 .10300001 .43133334 .10300001 .40600003 C .10300001 .3906667 .10866668 .37666667 .12000001 .364 C .132 .352 .15333332 .34133337 .184 .33200003 L .31100003 .294 C .35500003 .28199999 .38766668 .264 .409 .24000001 C .43033336 .21666669 .441 .18866669 .441 .15600002 C .441 .12533334 .4316667 .098 .41300003 .074 C .39433337 .05066667 .36866669 .032333334 .33600004 .019000002 C .30333335 .006333334 .26633335 0 .225 0 C .17366667 0 .128 .010000001 .08800001 .030000002 C .048000006 .05066667 .01966667 .07733334 .0030000006 .11 C .0010000002 .11333334 0 .116 0 .118 C 0 .12133334 .0016666669 .124000009 .005000001 .126 L .044000009 .14800002 C .05066667 .15200001 .055666675 .15166669 .059000009 .14700002 C .095000009 .08966667 .15066667 .061000006 .22600001 .061000006 C .26533333 .061666669 .29766668 .06966667 .323 .085 C .349 .101 .36200003 .12166667 .36200003 .14700002 C .36200003 .16566669 .35433338 .18133335 .33900003 .19400002 C .3236667 .2066667 .2986667 .21800001 .264 .22800002 L .161 .257 C .112333338 .26966668 .07733334 .28733335 .056 .31 C .035333337 .33266668 .025 .36033336 .025 .393 C .025 .4236667 .033333336 .451 .050000006 .47500003 C .06733334 .49900005 .09133334 .5173333 .122 .53000006 C .15333334 .54333338 .18900001 .55 .229 .55 C .273 .55 .31233336 .5416667 .347 .52500006 C .38233338 .5083334 .40933336 .48566667 .428 .45700003 C .43266667 .45033337 .43233336 .44566668 .42700003 .44300003 L .38500003 .42000003 C .38233338 .4186667 .38033334 .418 .379 .418 C .37633334 .418 .37333334 .41966669 .37 .423 Z "/>
</symbol>
<symbol id="font_0_126">
<path d="M .193 .46800003 C .18766667 .46800003 .185 .46500004 .185 .45900003 L .185 .142 C .185 .11200001 .19 .09133334 .2 .080000009 C .21 .06866667 .22633334 .063 .249 .063 L .31800003 .063 C .32533337 .063 .32900004 .059333337 .32900004 .052 L .32800005 .018000002 C .32800005 .011333334 .32400004 .0070000009 .316 .0050000005 C .2986667 .0016666668 .26733337 0 .222 0 C .18 0 .14933335 .009666667 .13000001 .029000001 C .11066667 .049000008 .101 .08033334 .101 .123 L .101 .45700003 C .101 .4643334 .09766667 .46800003 .091000009 .46800003 L .011000002 .46800003 C .0036666685 .46800003 .0000000018626452 .47133336 .0000000018626452 .47800002 L .0000000018626452 .52000007 C .0000000018626452 .5266667 .0033333358 .53000006 .0100000039 .53000006 L .095000009 .53000006 C .09966668 .53000006 .102000009 .5326667 .102000009 .53800007 L .11300001 .697 C .11300001 .7056667 .116666678 .71000006 .124000009 .71000006 L .17400001 .71000006 C .182 .71000006 .186 .7053334 .186 .69600006 L .186 .53800007 C .186 .5326667 .18866666 .53000006 .194 .53000006 L .32000003 .53000006 C .32733337 .53000006 .33100004 .527 .33100004 .521 L .33100004 .47800002 C .33100004 .47133336 .32733337 .46800003 .32000003 .46800003 L .193 .46800003 Z "/>
</symbol>
<symbol id="font_0_a7">
<path d="M .34500004 .074 C .2936667 .024666667 .23433335 0 .16700001 0 C .11500001 0 .074 .013 .044000005 .039 C .014666668 .06566667 0 .10100001 0 .14500001 C 0 .19833334 .022333334 .24033334 .067 .271 C .112333338 .30166666 .17766667 .31966666 .263 .32500003 L .34100003 .331 C .3523334 .33233334 .35800005 .33733336 .35800005 .34600003 L .35800005 .373 C .35800005 .409 .3466667 .43733336 .32400004 .458 C .30200006 .4793333 .27200005 .49 .23400001 .49 C .17533334 .49 .12733333 .46333335 .09 .41 C .088 .40666668 .086 .40433336 .08400001 .403 C .082 .40233336 .079333338 .4026667 .076000008 .404 L .022 .42200003 C .018666668 .42333339 .017 .4256667 .017 .42900003 C .017 .431 .018000002 .43400003 .02 .43800003 C .040000004 .47333337 .068333338 .5006667 .105000007 .52000007 C .14233333 .54 .18633335 .55 .237 .55 C .30233336 .55 .3523334 .5346667 .38700003 .504 C .4216667 .474 .43900005 .43233336 .43900005 .379 L .43900005 .025000003 C .43900005 .019000002 .43800006 .015000001 .43600003 .013 C .43400003 .011 .43033339 .010000001 .42500005 .010000001 L .37500004 .010000001 C .367 .010000001 .3623334 .015333335 .36100004 .026 L .35900004 .072000008 C .35833336 .076666679 .3566667 .079 .35400004 .079 C .35133339 .079 .34833337 .07733334 .34500004 .074 M .35800005 .264 C .35800005 .27466668 .35300005 .28 .34300003 .28 L .27800004 .274 C .216 .27 .168 .25800003 .134 .23800002 C .10066667 .21800001 .084000017 .19033335 .08400001 .15500002 C .084000017 .12633334 .094000007 .10366667 .11400001 .087000008 C .13466667 .07033334 .162 .062000004 .19600001 .062000004 C .21666669 .062000004 .23700004 .06566667 .25700004 .073 C .27700005 .08033333 .29466669 .090333338 .31000004 .103 C .32533337 .11500001 .33700005 .12766667 .34500004 .14100002 C .3536667 .15500002 .35800005 .16833335 .35800005 .18100001 L .35800005 .264 Z "/>
</symbol>
<symbol id="font_0_fa">
<path d="M .013999999 0 C .004666666 0 0 .0043333338 0 .013 L 0 .517 C 0 .5256667 .0036666666 .53000006 .011 .53000006 L .070999998 .53000006 C .07833333 .53000006 .082 .5263334 .082 .51900008 L .082 .46100004 C .082 .4536667 .085 .45266668 .091000009 .45800004 C .12833333 .4873334 .16000001 .5083334 .186 .521 C .21266668 .5336667 .24233334 .54 .27500005 .54 C .3256667 .54 .365 .52633336 .393 .499 C .42166666 .4716667 .436 .43500004 .436 .38900004 L .436 .016 C .436 .0053333339 .431 0 .421 0 L .365 0 C .35633336 0 .352 .0043333338 .352 .013 L .352 .37 C .352 .40333335 .34333334 .42900003 .32600004 .44700004 C .30933336 .46500004 .28333334 .47400008 .24800001 .47400005 C .22000002 .47400008 .194 .46766673 .17 .455 C .14666666 .443 .11800001 .42233334 .08400001 .393 L .08400001 .015000001 C .084000017 .009666667 .08266667 .005666667 .08 .003 C .078 .001 .07433334 0 .069000009 0 L .013999999 0 Z "/>
</symbol>
<symbol id="font_0_2">
<path d="M 0 0 Z "/>
</symbol>
<symbol id="font_0_72">
<path d="M .53000006 .019000002 C .53066667 .017666668 .531 .015333335 .531 .012 C .531 .004 .527 0 .51900008 0 L .44600005 0 C .43866668 0 .4333333 .004 .43 .012 L .30100004 .32700003 C .29900003 .331 .29633335 .33400003 .293 .33600004 C .28966669 .33800004 .28433336 .33900003 .277 .33900003 L .10800001 .33900003 C .1 .33900003 .09599999 .33533336 .096 .328 L .096 .016 C .09599999 .010000001 .09466667 .005666667 .09200001 .003 C .09 .001 .08566668 0 .07900001 0 L .014000006 0 C .008666672 0 .0050000029 .001 .0029999987 .003 C .0009999996 .0050000005 0 .008333334 0 .013 L 0 .72800007 C 0 .7333334 .000666668 .73700007 .002000004 .739 C .004000003 .741 .007333336 .74200007 .012000002 .74200007 L .291 .74200007 C .37033335 .74200007 .4316667 .7256667 .47500003 .693 C .5183334 .6603334 .54 .61266669 .54 .55 C .54 .49733339 .5256667 .4546667 .49700005 .42200003 C .469 .39000003 .43466673 .36800004 .39400003 .356 C .39133335 .35533334 .38966669 .354 .38900004 .35200004 C .38833336 .35000003 .38866667 .34800003 .39000003 .34600003 L .53000006 .019000002 M .263 .40800003 C .32233338 .40800003 .3666667 .4186667 .39600004 .44000004 C .42533336 .46133337 .43999998 .49500004 .44 .541 C .43999998 .58433338 .42700003 .61700007 .40100003 .63900008 C .375 .6610001 .33666668 .6720001 .286 .67200008 L .110000018 .67200008 C .10066667 .6720001 .09599999 .66833338 .096 .661 L .096 .42100004 C .09599999 .41233338 .099 .40800003 .105000007 .40800003 L .263 .40800003 Z "/>
</symbol>
<symbol id="font_0_103">
<path d="M .25300003 0 C .20300001 0 .15866667 .011333334 .120000008 .034 C .082 .05733334 .052333338 .08966667 .031000004 .13100001 C .010333334 .17233336 0 .21933335 0 .272 C 0 .326 .010666666 .37399999 .031999999 .416 C .054 .45800004 .084000017 .49066667 .12200001 .514 C .16066668 .53800007 .20466668 .55 .254 .55 C .30333335 .55 .347 .53800007 .38500003 .514 C .4236667 .49066667 .45333339 .45800004 .47400005 .416 C .49533335 .37399999 .50600007 .32633335 .50600007 .273 C .50600007 .22033334 .49533335 .17333335 .47400005 .13200002 C .45266668 .090666677 .4226667 .058333335 .384 .035 C .34600006 .011666667 .30233336 0 .25300003 0 M .25500003 .063 C .307 .063 .34733335 .08166667 .37600003 .119 C .40533338 .157 .42 .209 .42000003 .275 C .42 .34033335 .405 .392 .37500004 .43 C .34566669 .46866668 .30533336 .488 .254 .488 C .20200002 .488 .16100002 .46866668 .131 .43 C .10099999 .392 .085999999 .34033335 .085999999 .275 C .085999999 .20966669 .10099999 .158 .131 .120000008 C .16100002 .082 .20233335 .063 .25500003 .063 Z "/>
</symbol>
<use xlink:href="#font_0_13" transform="matrix(13.548611,0,0,-13.548611,126.17787,224.37796)" fill="#ffffff"/>
<use xlink:href="#font_0_116" transform="matrix(13.548611,0,0,-13.548611,135.91933,224.24248)" fill="#ffffff"/>
<use xlink:href="#font_0_dd" transform="matrix(13.548611,0,0,-13.548611,141.0678,224.24248)" fill="#ffffff"/>
<use xlink:href="#font_0_11d" transform="matrix(13.548611,0,0,-13.548611,143.64203,224.37796)" fill="#ffffff"/>
<use xlink:href="#font_0_126" transform="matrix(13.548611,0,0,-13.548611,150.56537,224.24248)" fill="#ffffff"/>
<use xlink:href="#font_0_dd" transform="matrix(13.548611,0,0,-13.548611,156.48612,224.24248)" fill="#ffffff"/>
<use xlink:href="#font_0_a7" transform="matrix(13.548611,0,0,-13.548611,159.26358,224.37796)" fill="#ffffff"/>
<use xlink:href="#font_0_fa" transform="matrix(13.548611,0,0,-13.548611,167.18952,224.24248)" fill="#ffffff"/>
<use xlink:href="#font_0_2" transform="matrix(13.548611,0,0,-13.548611,174.05867,224.24248)" fill="#ffffff"/>
<use xlink:href="#font_0_72" transform="matrix(13.548611,0,0,-13.548611,178.28583,224.24248)" fill="#ffffff"/>
<use xlink:href="#font_0_103" transform="matrix(13.548611,0,0,-13.548611,187.02468,224.37796)" fill="#ffffff"/>
<use xlink:href="#font_0_126" transform="matrix(13.548611,0,0,-13.548611,194.76094,224.24248)" fill="#ffffff"/>
<use xlink:href="#font_0_a7" transform="matrix(13.548611,0,0,-13.548611,200.22104,224.37796)" fill="#ffffff"/>
<use xlink:href="#font_0_116" transform="matrix(13.548611,0,0,-13.548611,208.14696,224.24248)" fill="#ffffff"/>
<use xlink:href="#font_0_dd" transform="matrix(13.548611,0,0,-13.548611,213.29543,224.24248)" fill="#ffffff"/>
</g>
</g>
</svg>
